<svg width="7" height="11" viewBox="0 0 7 11" fill="none" xmlns="http://www.w3.org/2000/svg">
<path d="M3.02388 8.18494C2.61188 8.18494 2.25588 8.11894 1.95588 7.98694C1.65988 7.85094 1.41588 7.68094 1.22388 7.47694C1.03588 7.26894 0.895883 7.05694 0.803883 6.84094C0.715883 6.62494 0.671883 6.43694 0.671883 6.27694C0.671883 6.13694 0.701883 6.03894 0.761883 5.98294C0.825883 5.92294 0.911883 5.89294 1.01988 5.89294C1.12788 5.89294 1.20988 5.92494 1.26588 5.98894C1.32588 6.05294 1.37588 6.14494 1.41588 6.26494C1.49188 6.48094 1.59788 6.67494 1.73388 6.84694C1.87388 7.01894 2.04988 7.15494 2.26188 7.25494C2.47788 7.35494 2.73588 7.40494 3.03588 7.40494C3.41588 7.40494 3.72388 7.31094 3.95988 7.12294C4.19988 6.93094 4.31988 6.67694 4.31988 6.36094C4.31988 6.09294 4.24988 5.87894 4.10988 5.71894C3.96988 5.55494 3.78388 5.42094 3.55188 5.31694C3.32388 5.20894 3.07188 5.11094 2.79588 5.02294C2.52388 4.93494 2.24988 4.83294 1.97388 4.71694C1.70188 4.60094 1.44988 4.45094 1.21788 4.26694C0.989883 4.08294 0.805883 3.84294 0.665883 3.54694C0.525883 3.25094 0.455883 2.87694 0.455883 2.42494C0.455883 1.90094 0.561883 1.45894 0.773883 1.09894C0.985883 0.738937 1.28788 0.466937 1.67988 0.282937C2.07188 0.0949371 2.53588 0.000936985 3.07188 0.000936985C3.54788 0.000936985 3.94988 0.0589371 4.27788 0.174937C4.60588 0.290937 4.86788 0.438937 5.06388 0.618937C5.26388 0.794937 5.40788 0.976937 5.49588 1.16494C5.58388 1.35294 5.62788 1.51694 5.62788 1.65694C5.62788 1.82894 5.58188 1.95494 5.48988 2.03494C5.39788 2.11094 5.29188 2.14894 5.17188 2.14894C5.04788 2.14894 4.94188 2.10494 4.85388 2.01694C4.76588 1.92494 4.67388 1.82094 4.57788 1.70494C4.48588 1.58894 4.36588 1.48694 4.21788 1.39894C4.06988 1.30694 3.87188 1.26094 3.62388 1.26094C3.33188 1.26094 3.10188 1.34294 2.93388 1.50694C2.76988 1.67094 2.68788 1.88894 2.68788 2.16094C2.68788 2.40094 2.73388 2.60894 2.82588 2.78494C2.92188 2.96094 3.04788 3.12094 3.20388 3.26494C3.36388 3.40494 3.53588 3.53894 3.71988 3.66694C3.90788 3.79094 4.09388 3.92294 4.27788 4.06294C4.46588 4.20294 4.63788 4.36294 4.79388 4.54294C4.95388 4.71894 5.07988 4.92494 5.17188 5.16094C5.26788 5.39694 5.31588 5.67694 5.31588 6.00094C5.31588 6.33294 5.26388 6.63294 5.15988 6.90094C5.05988 7.16894 4.91188 7.39894 4.71588 7.59094C4.51988 7.78294 4.27988 7.93094 3.99588 8.03494C3.71188 8.13494 3.38788 8.18494 3.02388 8.18494ZM2.29188 4.17694C2.58788 4.17694 2.73588 4.05294 2.73588 3.80494C2.73588 3.67294 2.70388 3.57294 2.63988 3.50494C2.57588 3.43294 2.48388 3.39694 2.36388 3.39694C2.21588 3.39694 2.10988 3.43094 2.04588 3.49894C1.98588 3.56694 1.95588 3.66494 1.95588 3.79294C1.95588 3.90494 1.98788 3.99694 2.05188 4.06894C2.11588 4.14094 2.19588 4.17694 2.29188 4.17694ZM1.63188 3.20494C1.78788 3.20494 1.90388 3.16294 1.97988 3.07894C2.05988 2.99094 2.09988 2.88494 2.09988 2.76094C2.09988 2.60494 2.06188 2.49094 1.98588 2.41894C1.90988 2.34294 1.79188 2.30494 1.63188 2.30494C1.48388 2.30494 1.37388 2.34094 1.30188 2.41294C1.23388 2.48094 1.19988 2.59694 1.19988 2.76094C1.19988 2.90494 1.23988 3.01494 1.31988 3.09094C1.40388 3.16694 1.50788 3.20494 1.63188 3.20494ZM1.67988 1.90894C1.83188 1.90894 1.94388 1.87494 2.01588 1.80694C2.08788 1.73494 2.12388 1.63294 2.12388 1.50094C2.12388 1.36094 2.09188 1.26094 2.02788 1.20094C1.96388 1.13694 1.84788 1.10494 1.67988 1.10494C1.58388 1.10494 1.49988 1.13694 1.42788 1.20094C1.35588 1.26094 1.31988 1.36094 1.31988 1.50094C1.31988 1.62094 1.35188 1.71894 1.41588 1.79494C1.48388 1.87094 1.57188 1.90894 1.67988 1.90894ZM5.19588 2.05294C5.09988 2.05294 5.02388 2.02694 4.96788 1.97494C4.91188 1.91894 4.88388 1.83694 4.88388 1.72894C4.88388 1.62494 4.91588 1.54694 4.97988 1.49494C5.04788 1.44294 5.13188 1.41694 5.23188 1.41694C5.32388 1.41694 5.39388 1.44894 5.44188 1.51294C5.49388 1.57294 5.51988 1.64894 5.51988 1.74094C5.51988 1.83694 5.49188 1.91294 5.43588 1.96894C5.37988 2.02494 5.29988 2.05294 5.19588 2.05294ZM4.43988 7.30894L4.85988 6.86494C5.23188 7.13694 5.50388 7.35294 5.67588 7.51294C5.84788 7.66894 5.94788 7.79294 5.97588 7.88494C6.00788 7.97294 5.99588 8.05294 5.93988 8.12494C5.87188 8.21294 5.78588 8.25094 5.68188 8.23894C5.58188 8.22294 5.43388 8.14294 5.23788 7.99894C5.04588 7.85094 4.77988 7.62094 4.43988 7.30894ZM3.51588 7.80094L4.21188 7.48894C4.45988 8.01694 4.63588 8.42094 4.73988 8.70094C4.84388 8.98494 4.88788 9.18694 4.87188 9.30694C4.85988 9.42694 4.79988 9.50894 4.69188 9.55294C4.57588 9.60094 4.46788 9.58294 4.36788 9.49894C4.27188 9.41894 4.15788 9.24494 4.02588 8.97694C3.89788 8.70894 3.72788 8.31694 3.51588 7.80094ZM2.43588 7.93294L3.13188 7.95694C3.17188 8.52094 3.19188 8.94894 3.19188 9.24094C3.19588 9.53294 3.16988 9.73094 3.11388 9.83494C3.05788 9.94294 2.95988 10.0009 2.81988 10.0089C2.70388 10.0129 2.61188 9.96294 2.54388 9.85894C2.47588 9.75894 2.43188 9.55894 2.41188 9.25894C2.39588 8.96294 2.40388 8.52094 2.43588 7.93294ZM1.52388 7.70494C1.54388 7.68094 1.56388 7.65694 1.58388 7.63294C1.60788 7.60894 1.62788 7.58894 1.64388 7.57294C1.71188 7.50494 1.78188 7.47294 1.85388 7.47694C1.92588 7.48094 1.98788 7.50494 2.03988 7.54894C2.10788 7.58894 2.15388 7.64894 2.17788 7.72894C2.20588 7.80494 2.19588 7.87294 2.14788 7.93294C2.13588 7.94894 2.12188 7.96894 2.10588 7.99294C2.08988 8.01294 2.07588 8.03294 2.06388 8.05294C1.80788 8.38894 1.60388 8.62294 1.45188 8.75494C1.29988 8.89094 1.17988 8.96294 1.09188 8.97094C1.00788 8.97894 0.939883 8.96094 0.887883 8.91694C0.839883 8.87294 0.811883 8.81094 0.803883 8.73094C0.799883 8.65094 0.847883 8.53094 0.947883 8.37094C1.05188 8.21094 1.24388 7.98894 1.52388 7.70494ZM1.30788 6.58894L1.48788 7.15294C1.15588 7.31294 0.893883 7.43094 0.701883 7.50694C0.513883 7.57894 0.371883 7.60894 0.275883 7.59694C0.183883 7.58494 0.115883 7.52894 0.0718828 7.42894C0.0238828 7.30894 0.0318828 7.20694 0.0958828 7.12294C0.163883 7.03494 0.295883 6.95094 0.491883 6.87094C0.691883 6.79094 0.963883 6.69694 1.30788 6.58894Z" fill="black"/>
</svg>
